ffmpeg started on 2025-05-12 at 20:31:30
Report written to "D:\Convert\FFMetrics\reports\psnr_report-6.txt"
Log level: 32
Command line:
ffmpeg -hide_banner -nostdin -i "G:\\\xc0\xed\xe8\xec\xe5\\\xce\xed\xe3\xee\xe8\xed\xe3\xe8\\!_35_\xcb\xe5\xf2\xee_2024\\DreamCast-1\\\xcf\xee\xeb\xf3\xed\xee\xf7\xed\xfb\xe9 \xf3\xe4\xe0\xf0\\[DC] Mayonaka Punch - 12_Telegram_HEVC.mkv" -i "G:\\\xc0\xed\xe8\xec\xe5\\\xce\xed\xe3\xee\xe8\xed\xe3\xe8\\!_35_\xcb\xe5\xf2\xee_2024\\DreamCast-1\\\xcf\xee\xeb\xf3\xed\xee\xf7\xed\xfb\xe9 \xf3\xe4\xe0\xf0\\[DC] Mayonaka Punch - 12_Telegram.mp4" -lavfi "[0:v]settb=AVTB,setpts=PTS-STARTPTS,format=pix_fmts=yuv420p10,fps=24000/1001,scale=1920:1080:flags=bicubic[main];[1:v]settb=AVTB,setpts=PTS-STARTPTS,format=pix_fmts=yuv420p,fps=24000/1001,scale=1920:1080:flags=bicubic[ref];[main][ref]psnr=eof_action=endall:stats_file='D\\:/Convert/FFMetrics/logs/psnr_logfile-6.txt'" -f null -
Input #0, matroska,webm, from 'G:\Аниме\Онгоинги\!_35_Лето_2024\DreamCast-1\Полуночный удар\[DC] Mayonaka Punch - 12_Telegram_HEVC.mkv':
  Metadata:
    COMPATIBLE_BRANDS: isomiso2avc1mp41
    MAJOR_BRAND     : isom
    MINOR_VERSION   : 512
    ENCODER         : Lavf61.7.100
  Duration: 00:23:47.76, start: -0.021000, bitrate: 1153 kb/s
  Stream #0:0: Video: hevc (Main 10), yuv420p10le(tv, bt709, progressive), 1920x1080 [SAR 1:1 DAR 16:9], 23.98 fps, 23.98 tbr, 1k tbn (default)
      Metadata:
        HANDLER_NAME    : VideoHandler
        VENDOR_ID       : [0][0][0][0]
        ENCODER         : Lavc61.19.100 libx265
        BPS             : 956458
        DURATION        : 00:23:46.591708333
        NUMBER_OF_FRAMES: 34204
        NUMBER_OF_BYTES : 170559400
        _STATISTICS_WRITING_APP: mkvpropedit v66.0.0 ('Josie') 64-bit
        _STATISTICS_WRITING_DATE_UTC: 2025-05-10 12:14:58
        _STATISTICS_TAGS: BPS DURATION NUMBER_OF_FRAMES NUMBER_OF_BYTES
  Stream #0:1: Audio: aac (LC), 48000 Hz, stereo, fltp (default)
      Metadata:
        HANDLER_NAME    : SoundHandler
        VENDOR_ID       : [0][0][0][0]
        ENCODER         : Lavc61.19.100 aac
        BPS             : 193542
        DURATION        : 00:23:47.754000000
        NUMBER_OF_FRAMES: 66927
        NUMBER_OF_BYTES : 34541300
        _STATISTICS_WRITING_APP: mkvpropedit v66.0.0 ('Josie') 64-bit
        _STATISTICS_WRITING_DATE_UTC: 2025-05-10 12:14:58
        _STATISTICS_TAGS: BPS DURATION NUMBER_OF_FRAMES NUMBER_OF_BYTES
Input #1, mov,mp4,m4a,3gp,3g2,mj2, from 'G:\Аниме\Онгоинги\!_35_Лето_2024\DreamCast-1\Полуночный удар\[DC] Mayonaka Punch - 12_Telegram.mp4':
  Metadata:
    major_brand     : isom
    minor_version   : 512
    compatible_brands: isomiso2avc1mp41
    encoder         : Lavf61.1.100
  Duration: 00:23:47.72, start: 0.000000, bitrate: 3813 kb/s
  Stream #1:0[0x1](und): Video: h264 (High) (avc1 / 0x31637661), yuv420p(tv, bt709, progressive), 1920x1080 [SAR 1:1 DAR 16:9], 3668 kb/s, 23.98 fps, 23.98 tbr, 24k tbn (default)
      Metadata:
        handler_name    : VideoHandler
        vendor_id       : [0][0][0][0]
        encoder         : Lavc61.3.100 h264_qsv
  Stream #1:1[0x2](und): Audio: aac (HE-AACv2) (mp4a / 0x6134706D), 48000 Hz, stereo, fltp, 144 kb/s (default)
      Metadata:
        handler_name    : SoundHandler
        vendor_id       : [0][0][0][0]
Stream mapping:
  Stream #0:0 (hevc) -> settb:default
  Stream #1:0 (h264) -> settb:default
  psnr:default -> Stream #0:0 (wrapped_avframe)
  Stream #0:1 -> #0:1 (aac (native) -> pcm_s16le (native))
Output #0, null, to 'pipe:':
  Metadata:
    COMPATIBLE_BRANDS: isomiso2avc1mp41
    MAJOR_BRAND     : isom
    MINOR_VERSION   : 512
    encoder         : Lavf61.7.100
  Stream #0:0: Video: wrapped_avframe, yuv420p10le(tv, bt709, progressive), 1920x1080 [SAR 1:1 DAR 16:9], q=2-31, 200 kb/s, 23.98 fps, 23.98 tbn
      Metadata:
        encoder         : Lavc61.19.100 wrapped_avframe
  Stream #0:1: Audio: pcm_s16le, 48000 Hz, stereo, s16, 1536 kb/s (default)
      Metadata:
        HANDLER_NAME    : SoundHandler
        VENDOR_ID       : [0][0][0][0]
        _STATISTICS_TAGS: BPS DURATION NUMBER_OF_FRAMES NUMBER_OF_BYTES
        BPS             : 193542
        DURATION        : 00:23:47.754000000
        NUMBER_OF_FRAMES: 66927
        NUMBER_OF_BYTES : 34541300
        _STATISTICS_WRITING_APP: mkvpropedit v66.0.0 ('Josie') 64-bit
        _STATISTICS_WRITING_DATE_UTC: 2025-05-10 12:14:58
        encoder         : Lavc61.19.100 pcm_s16le
frame=  143 fps=0.0 q=-0.0 size=N/A time=00:00:05.96 bitrate=N/A speed=11.7x    frame=  353 fps=342 q=-0.0 size=N/A time=00:00:14.72 bitrate=N/A speed=14.3x    frame=  571 fps=368 q=-0.0 size=N/A time=00:00:23.81 bitrate=N/A speed=15.3x    frame=  785 fps=381 q=-0.0 size=N/A time=00:00:32.74 bitrate=N/A speed=15.9x    frame= 1012 fps=392 q=-0.0 size=N/A time=00:00:42.20 bitrate=N/A speed=16.4x    frame= 1237 fps=399 q=-0.0 size=N/A time=00:00:51.59 bitrate=N/A speed=16.6x    frame= 1445 fps=400 q=-0.0 size=N/A time=00:01:00.26 bitrate=N/A speed=16.7x    frame= 1682 fps=408 q=-0.0 size=N/A time=00:01:10.15 bitrate=N/A speed=  17x    frame= 1924 fps=414 q=-0.0 size=N/A time=00:01:20.24 bitrate=N/A speed=17.3x    frame= 2178 fps=421 q=-0.0 size=N/A time=00:01:30.84 bitrate=N/A speed=17.6x    frame= 2421 fps=425 q=-0.0 size=N/A time=00:01:40.97 bitrate=N/A speed=17.7x    frame= 2652 fps=427 q=-0.0 size=N/A time=00:01:50.61 bitrate=N/A speed=17.8x    frame= 2832 fps=422 q=-0.0 size=N/A time=00:01:58.11 bitrate=N/A speed=17.6x    frame= 3086 fps=426 q=-0.0 size=N/A time=00:02:08.71 bitrate=N/A speed=17.8x    frame= 3294 fps=425 q=-0.0 size=N/A time=00:02:17.38 bitrate=N/A speed=17.7x    frame= 3512 fps=425 q=-0.0 size=N/A time=00:02:26.47 bitrate=N/A speed=17.7x    frame= 3747 fps=426 q=-0.0 size=N/A time=00:02:36.28 bitrate=N/A speed=17.8x    frame= 3973 fps=427 q=-0.0 size=N/A time=00:02:45.70 bitrate=N/A speed=17.8x    frame= 4224 fps=430 q=-0.0 size=N/A time=00:02:56.17 bitrate=N/A speed=17.9x    frame= 4443 fps=430 q=-0.0 size=N/A time=00:03:05.31 bitrate=N/A speed=17.9x    frame= 4682 fps=432 q=-0.0 size=N/A time=00:03:15.27 bitrate=N/A speed=  18x    frame= 4913 fps=432 q=-0.0 size=N/A time=00:03:24.91 bitrate=N/A speed=  18x    frame= 5158 fps=435 q=-0.0 size=N/A time=00:03:35.13 bitrate=N/A speed=18.1x    frame= 5391 fps=435 q=-0.0 size=N/A time=00:03:44.84 bitrate=N/A speed=18.1x    frame= 5601 fps=434 q=-0.0 size=N/A time=00:03:53.65 bitrate=N/A speed=18.1x    frame= 5800 fps=432 q=-0.0 size=N/A time=00:04:01.90 bitrate=N/A speed=  18x    frame= 6019 fps=432 q=-0.0 size=N/A time=00:04:11.04 bitrate=N/A speed=  18x    frame= 6229 fps=431 q=-0.0 size=N/A time=00:04:19.80 bitrate=N/A speed=  18x    frame= 6454 fps=431 q=-0.0 size=N/A time=00:04:29.18 bitrate=N/A speed=  18x    frame= 6677 fps=431 q=-0.0 size=N/A time=00:04:38.48 bitrate=N/A speed=  18x    frame= 6900 fps=431 q=-0.0 size=N/A time=00:04:47.78 bitrate=N/A speed=  18x    frame= 7138 fps=432 q=-0.0 size=N/A time=00:04:57.71 bitrate=N/A speed=  18x    frame= 7382 fps=433 q=-0.0 size=N/A time=00:05:07.89 bitrate=N/A speed=18.1x    frame= 7616 fps=434 q=-0.0 size=N/A time=00:05:17.65 bitrate=N/A speed=18.1x    frame= 7862 fps=435 q=-0.0 size=N/A time=00:05:27.91 bitrate=N/A speed=18.2x    frame= 8103 fps=436 q=-0.0 size=N/A time=00:05:37.96 bitrate=N/A speed=18.2x    frame= 8304 fps=435 q=-0.0 size=N/A time=00:05:46.34 bitrate=N/A speed=18.1x    frame= 8528 fps=435 q=-0.0 size=N/A time=00:05:55.68 bitrate=N/A speed=18.1x    frame= 8784 fps=437 q=-0.0 size=N/A time=00:06:06.36 bitrate=N/A speed=18.2x    frame= 9039 fps=438 q=-0.0 size=N/A time=00:06:17.00 bitrate=N/A speed=18.3x    frame= 9248 fps=437 q=-0.0 size=N/A time=00:06:25.71 bitrate=N/A speed=18.2x    frame= 9441 fps=435 q=-0.0 size=N/A time=00:06:33.76 bitrate=N/A speed=18.2x    frame= 9638 fps=434 q=-0.0 size=N/A time=00:06:41.98 bitrate=N/A speed=18.1x    frame= 9842 fps=433 q=-0.0 size=N/A time=00:06:50.49 bitrate=N/A speed=18.1x    frame=10072 fps=434 q=-0.0 size=N/A time=00:07:00.08 bitrate=N/A speed=18.1x    frame=10308 fps=434 q=-0.0 size=N/A time=00:07:09.92 bitrate=N/A speed=18.1x    frame=10570 fps=436 q=-0.0 size=N/A time=00:07:20.85 bitrate=N/A speed=18.2x    frame=10787 fps=436 q=-0.0 size=N/A time=00:07:29.90 bitrate=N/A speed=18.2x    frame=10993 fps=435 q=-0.0 size=N/A time=00:07:38.49 bitrate=N/A speed=18.1x    frame=11163 fps=433 q=-0.0 size=N/A time=00:07:45.59 bitrate=N/A speed=18.1x    frame=11359 fps=432 q=-0.0 size=N/A time=00:07:53.76 bitrate=N/A speed=  18x    frame=11577 fps=432 q=-0.0 size=N/A time=00:08:02.85 bitrate=N/A speed=  18x    frame=11781 fps=431 q=-0.0 size=N/A time=00:08:11.36 bitrate=N/A speed=  18x    frame=11992 fps=430 q=-0.0 size=N/A time=00:08:20.16 bitrate=N/A speed=  18x    frame=12215 fps=430 q=-0.0 size=N/A time=00:08:29.46 bitrate=N/A speed=  18x    frame=12475 fps=432 q=-0.0 size=N/A time=00:08:40.31 bitrate=N/A speed=  18x    frame=12635 fps=430 q=-0.0 size=N/A time=00:08:46.98 bitrate=N/A speed=17.9x    frame=12883 fps=431 q=-0.0 size=N/A time=00:08:57.32 bitrate=N/A speed=  18x    frame=13123 fps=431 q=-0.0 size=N/A time=00:09:07.33 bitrate=N/A speed=  18x    frame=13367 fps=432 q=-0.0 size=N/A time=00:09:17.51 bitrate=N/A speed=  18x    frame=13603 fps=432 q=-0.0 size=N/A time=00:09:27.35 bitrate=N/A speed=  18x    frame=13853 fps=433 q=-0.0 size=N/A time=00:09:37.78 bitrate=N/A speed=18.1x    frame=14094 fps=434 q=-0.0 size=N/A time=00:09:47.83 bitrate=N/A speed=18.1x    frame=14309 fps=433 q=-0.0 size=N/A time=00:09:56.80 bitrate=N/A speed=18.1x    frame=14537 fps=434 q=-0.0 size=N/A time=00:10:06.31 bitrate=N/A speed=18.1x    frame=14770 fps=434 q=-0.0 size=N/A time=00:10:16.03 bitrate=N/A speed=18.1x    frame=15014 fps=434 q=-0.0 size=N/A time=00:10:26.20 bitrate=N/A speed=18.1x    frame=15261 fps=435 q=-0.0 size=N/A time=00:10:36.51 bitrate=N/A speed=18.1x    frame=15507 fps=436 q=-0.0 size=N/A time=00:10:46.77 bitrate=N/A speed=18.2x    frame=15744 fps=436 q=-0.0 size=N/A time=00:10:56.65 bitrate=N/A speed=18.2x    frame=15999 fps=437 q=-0.0 size=N/A time=00:11:07.29 bitrate=N/A speed=18.2x    frame=16242 fps=437 q=-0.0 size=N/A time=00:11:17.42 bitrate=N/A speed=18.2x    frame=16486 fps=438 q=-0.0 size=N/A time=00:11:27.60 bitrate=N/A speed=18.3x    frame=16693 fps=437 q=-0.0 size=N/A time=00:11:36.23 bitrate=N/A speed=18.2x    frame=16923 fps=437 q=-0.0 size=N/A time=00:11:45.83 bitrate=N/A speed=18.2x    frame=17139 fps=437 q=-0.0 size=N/A time=00:11:54.83 bitrate=N/A speed=18.2x    frame=17359 fps=437 q=-0.0 size=N/A time=00:12:04.01 bitrate=N/A speed=18.2x    frame=17598 fps=437 q=-0.0 size=N/A time=00:12:13.98 bitrate=N/A speed=18.2x    frame=17837 fps=438 q=-0.0 size=N/A time=00:12:23.95 bitrate=N/A speed=18.3x    frame=18055 fps=437 q=-0.0 size=N/A time=00:12:33.04 bitrate=N/A speed=18.2x    frame=18281 fps=437 q=-0.0 size=N/A time=00:12:42.47 bitrate=N/A speed=18.2x    frame=18521 fps=438 q=-0.0 size=N/A time=00:12:52.48 bitrate=N/A speed=18.3x    frame=18774 fps=438 q=-0.0 size=N/A time=00:13:03.03 bitrate=N/A speed=18.3x    frame=19023 fps=439 q=-0.0 size=N/A time=00:13:13.41 bitrate=N/A speed=18.3x    frame=19280 fps=440 q=-0.0 size=N/A time=00:13:24.13 bitrate=N/A speed=18.3x    frame=19534 fps=440 q=-0.0 size=N/A time=00:13:34.73 bitrate=N/A speed=18.4x    frame=19761 fps=440 q=-0.0 size=N/A time=00:13:44.19 bitrate=N/A speed=18.4x    frame=20009 fps=441 q=-0.0 size=N/A time=00:13:54.54 bitrate=N/A speed=18.4x    frame=20212 fps=440 q=-0.0 size=N/A time=00:14:03.00 bitrate=N/A speed=18.4x    frame=20415 fps=440 q=-0.0 size=N/A time=00:14:11.47 bitrate=N/A speed=18.3x    frame=20576 fps=438 q=-0.0 size=N/A time=00:14:18.19 bitrate=N/A speed=18.3x    frame=20785 fps=438 q=-0.0 size=N/A time=00:14:26.90 bitrate=N/A speed=18.3x    frame=20946 fps=436 q=-0.0 size=N/A time=00:14:33.62 bitrate=N/A speed=18.2x    frame=21145 fps=436 q=-0.0 size=N/A time=00:14:41.92 bitrate=N/A speed=18.2x    frame=21361 fps=436 q=-0.0 size=N/A time=00:14:50.93 bitrate=N/A speed=18.2x    frame=21610 fps=436 q=-0.0 size=N/A time=00:15:01.31 bitrate=N/A speed=18.2x    frame=21843 fps=436 q=-0.0 size=N/A time=00:15:11.03 bitrate=N/A speed=18.2x    frame=22066 fps=436 q=-0.0 size=N/A time=00:15:20.33 bitrate=N/A speed=18.2x    frame=22268 fps=436 q=-0.0 size=N/A time=00:15:28.76 bitrate=N/A speed=18.2x    frame=22460 fps=435 q=-0.0 size=N/A time=00:15:36.76 bitrate=N/A speed=18.2x    frame=22681 fps=435 q=-0.0 size=N/A time=00:15:45.98 bitrate=N/A speed=18.1x    frame=22915 fps=435 q=-0.0 size=N/A time=00:15:55.74 bitrate=N/A speed=18.2x    frame=23149 fps=436 q=-0.0 size=N/A time=00:16:05.50 bitrate=N/A speed=18.2x    frame=23377 fps=436 q=-0.0 size=N/A time=00:16:15.01 bitrate=N/A speed=18.2x    frame=23613 fps=436 q=-0.0 size=N/A time=00:16:24.85 bitrate=N/A speed=18.2x    frame=23816 fps=435 q=-0.0 size=N/A time=00:16:33.32 bitrate=N/A speed=18.2x    frame=24047 fps=435 q=-0.0 size=N/A time=00:16:42.96 bitrate=N/A speed=18.2x    frame=24282 fps=436 q=-0.0 size=N/A time=00:16:52.76 bitrate=N/A speed=18.2x    frame=24530 fps=436 q=-0.0 size=N/A time=00:17:03.10 bitrate=N/A speed=18.2x    frame=24750 fps=436 q=-0.0 size=N/A time=00:17:12.28 bitrate=N/A speed=18.2x    frame=24982 fps=436 q=-0.0 size=N/A time=00:17:21.95 bitrate=N/A speed=18.2x    frame=25215 fps=436 q=-0.0 size=N/A time=00:17:31.67 bitrate=N/A speed=18.2x    frame=25466 fps=437 q=-0.0 size=N/A time=00:17:42.14 bitrate=N/A speed=18.2x    frame=25701 fps=437 q=-0.0 size=N/A time=00:17:51.94 bitrate=N/A speed=18.2x    frame=25864 fps=436 q=-0.0 size=N/A time=00:17:58.74 bitrate=N/A speed=18.2x    frame=26100 fps=436 q=-0.0 size=N/A time=00:18:08.58 bitrate=N/A speed=18.2x    frame=26324 fps=436 q=-0.0 size=N/A time=00:18:17.93 bitrate=N/A speed=18.2x    frame=26557 fps=436 q=-0.0 size=N/A time=00:18:27.64 bitrate=N/A speed=18.2x    frame=26809 fps=437 q=-0.0 size=N/A time=00:18:38.15 bitrate=N/A speed=18.2x    frame=27045 fps=437 q=-0.0 size=N/A time=00:18:48.00 bitrate=N/A speed=18.2x    frame=27284 fps=437 q=-0.0 size=N/A time=00:18:57.97 bitrate=N/A speed=18.2x    frame=27547 fps=438 q=-0.0 size=N/A time=00:19:08.93 bitrate=N/A speed=18.3x    frame=27796 fps=438 q=-0.0 size=N/A time=00:19:19.32 bitrate=N/A speed=18.3x    frame=28028 fps=438 q=-0.0 size=N/A time=00:19:29.00 bitrate=N/A speed=18.3x    frame=28260 fps=438 q=-0.0 size=N/A time=00:19:38.67 bitrate=N/A speed=18.3x    frame=28458 fps=438 q=-0.0 size=N/A time=00:19:46.93 bitrate=N/A speed=18.3x    frame=28647 fps=437 q=-0.0 size=N/A time=00:19:54.81 bitrate=N/A speed=18.2x    frame=28834 fps=437 q=-0.0 size=N/A time=00:20:02.61 bitrate=N/A speed=18.2x    frame=29017 fps=436 q=-0.0 size=N/A time=00:20:10.25 bitrate=N/A speed=18.2x    frame=29193 fps=435 q=-0.0 size=N/A time=00:20:17.59 bitrate=N/A speed=18.2x    frame=29362 fps=434 q=-0.0 size=N/A time=00:20:24.64 bitrate=N/A speed=18.1x    frame=29546 fps=434 q=-0.0 size=N/A time=00:20:32.31 bitrate=N/A speed=18.1x    frame=29740 fps=433 q=-0.0 size=N/A time=00:20:40.40 bitrate=N/A speed=18.1x    frame=29911 fps=433 q=-0.0 size=N/A time=00:20:47.53 bitrate=N/A speed=  18x    frame=30067 fps=432 q=-0.0 size=N/A time=00:20:54.04 bitrate=N/A speed=  18x    frame=30296 fps=432 q=-0.0 size=N/A time=00:21:03.59 bitrate=N/A speed=  18x    frame=30553 fps=432 q=-0.0 size=N/A time=00:21:14.31 bitrate=N/A speed=  18x    frame=30749 fps=432 q=-0.0 size=N/A time=00:21:22.48 bitrate=N/A speed=  18x    frame=30972 fps=432 q=-0.0 size=N/A time=00:21:31.79 bitrate=N/A speed=  18x    frame=31140 fps=431 q=-0.0 size=N/A time=00:21:38.79 bitrate=N/A speed=  18x    frame=31377 fps=431 q=-0.0 size=N/A time=00:21:48.68 bitrate=N/A speed=  18x    frame=31608 fps=431 q=-0.0 size=N/A time=00:21:58.31 bitrate=N/A speed=  18x    frame=31748 fps=430 q=-0.0 size=N/A time=00:22:04.15 bitrate=N/A speed=17.9x    frame=31967 fps=430 q=-0.0 size=N/A time=00:22:13.29 bitrate=N/A speed=17.9x    frame=32195 fps=430 q=-0.0 size=N/A time=00:22:22.79 bitrate=N/A speed=17.9x    frame=32452 fps=431 q=-0.0 size=N/A time=00:22:33.51 bitrate=N/A speed=  18x    frame=32700 fps=431 q=-0.0 size=N/A time=00:22:43.86 bitrate=N/A speed=  18x    frame=32942 fps=431 q=-0.0 size=N/A time=00:22:53.95 bitrate=N/A speed=  18x    frame=33173 fps=432 q=-0.0 size=N/A time=00:23:03.59 bitrate=N/A speed=  18x    frame=33391 fps=431 q=-0.0 size=N/A time=00:23:12.68 bitrate=N/A speed=  18x    frame=33586 fps=431 q=-0.0 size=N/A time=00:23:20.81 bitrate=N/A speed=  18x    frame=33803 fps=431 q=-0.0 size=N/A time=00:23:29.86 bitrate=N/A speed=  18x    frame=34006 fps=431 q=-0.0 size=N/A time=00:23:38.33 bitrate=N/A speed=  18x    [Parsed_psnr_10 @ 000002496f669040] PSNR y:48.970969 u:50.530001 v:51.029359 average:49.492615 min:40.813965 max:inf
[out#0/null @ 000002496f644340] video:14697KiB audio:267708KiB subtitle:0KiB other streams:0KiB global headers:0KiB muxing overhead: unknown
frame=34204 fps=431 q=-0.0 Lsize=N/A time=00:23:46.59 bitrate=N/A speed=  18x    
